<svg xmlns="http://www.w3.org/2000/svg" width="63.349" height="80.57" viewBox="0 0 63.349 80.57">
  <g id="Group_39" data-name="Group 39" transform="translate(392.87 -404.901)">
    <path id="Path_111" data-name="Path 111" d="M-322.015,513.083V548.8l-13.459-13.459L-348.934,548.8V513.083Z" transform="translate(-25.722 -63.333)" fill="#3ba354"/>
    <circle id="Ellipse_23" data-name="Ellipse 23" cx="24.094" cy="24.094" r="24.094" transform="matrix(0.397, -0.918, 0.918, 0.397, -392.87, 449.138)" fill="#ffd34d"/>
    <g id="Group_38" data-name="Group 38" transform="translate(-381.749 416.023)">
      <path id="Path_112" data-name="Path 112" d="M-345.491,472.834a20.576,20.576,0,0,1-20.552-20.553,20.576,20.576,0,0,1,20.552-20.552,20.576,20.576,0,0,1,20.553,20.552A20.576,20.576,0,0,1-345.491,472.834Zm0-39.512a18.981,18.981,0,0,0-18.959,18.959,18.981,18.981,0,0,0,18.959,18.96,18.981,18.981,0,0,0,18.96-18.96A18.981,18.981,0,0,0-345.491,433.322Z" transform="translate(366.043 -431.729)" fill="#f2ba49"/>
    </g>
    <path id="Path_113" data-name="Path 113" d="M-334.345,449.2l2.989,9.2h9.671l-7.824,5.685,2.989,9.2-7.824-5.685-2.037,1.48-5.787,4.2,2.989-9.2L-347,458.394h9.671Z" transform="translate(-26.851 -25.931)" fill="#f2ba49"/>
  </g>
</svg>
