<svg xmlns="http://www.w3.org/2000/svg" width="70" height="70.535" viewBox="0 0 70 70.535">
  <g id="Group_30" data-name="Group 30" transform="translate(-601.972 -182.515)" opacity="0.78">
    <path id="Path_108" data-name="Path 108" d="M639.021,253.05h-4.1a5.547,5.547,0,0,0-.66-.122,32.035,32.035,0,0,1-8.077-1.589A34.178,34.178,0,0,1,608,237.56a35.058,35.058,0,0,1-5.653-14.633c-.145-1.03-.249-2.065-.372-3.1v-4.1a4.356,4.356,0,0,0,.117-.592,35.148,35.148,0,0,1,12.993-24.875,33.659,33.659,0,0,1,25.434-7.552,33.25,33.25,0,0,1,19.295,8.405,34.843,34.843,0,0,1,12.111,25.112,35.076,35.076,0,0,1-29.866,36.436C641.048,252.818,640.033,252.922,639.021,253.05Zm-2.09-5.858c16.322.119,29.184-13.543,29.195-29.356a29.159,29.159,0,1,0-58.314-.078C607.78,233.522,620.568,247.263,636.931,247.192Z" fill="#fff"/>
    <path id="Path_109" data-name="Path 109" d="M636.357,221.9c0-3.417-.008-6.835.009-10.252a3.45,3.45,0,0,1,.225-1.327,1.675,1.675,0,0,1,2.457-.608c.638.422,1.191.966,1.81,1.417q6.182,4.51,12.376,9c1.57,1.142,1.559,2.313-.027,3.467-1.235.9-2.475,1.785-3.7,2.691q-5.05,3.723-10.087,7.462a2.072,2.072,0,0,1-1.78.476,1.768,1.768,0,0,1-1.277-1.871Q636.349,227.125,636.357,221.9Z" transform="translate(-5.146 -4.026)" fill="#fff"/>
  </g>
</svg>
