<svg id="payment_live" data-name="PaymentLive" xmlns="http://www.w3.org/2000/svg" width="24.405" height="24.496" viewBox="0 0 24.405 24.496">
  <path id="Path_483" data-name="Path 483" d="M-1.892,326.008v4.885H-8.575v-4.885a2.1,2.1,0,0,1,2.1-2.1h2.49A2.1,2.1,0,0,1-1.892,326.008Z" transform="translate(17.436 -306.921)" fill="#fedb41"/>
  <path id="Path_484" data-name="Path 484" d="M-144.155,20.081h-23.357l10.333-9.58a2.1,2.1,0,0,1,2.863.011Z" transform="translate(168.036 -9.42)" fill="#00acea"/>
  <path id="Path_485" data-name="Path 485" d="M-98.318,203.229v11.216a2.1,2.1,0,0,1-2.1,2.1h-3.427v-4.885a2.1,2.1,0,0,0-2.1-2.1h-2.49a2.1,2.1,0,0,0-2.1,2.1v4.885h-3.547a2.1,2.1,0,0,1-2.1-2.1V203.229Z" transform="translate(119.385 -192.569)" fill="#00efd1"/>
  <path id="Path_486" data-name="Path 486" d="M-163.419.71A2.628,2.628,0,0,0-167,.7l-10.333,9.58a.524.524,0,0,0-.132.576.524.524,0,0,0,.488.333h2.169V21.876a2.623,2.623,0,0,0,2.62,2.62h13.658a2.623,2.623,0,0,0,2.62-2.62V11.185h2.289a.524.524,0,0,0,.487-.331.524.524,0,0,0-.128-.575Zm.941,22.738h-5.635V19.087a1.574,1.574,0,0,1,1.572-1.572h2.49a1.574,1.574,0,0,1,1.572,1.572Zm5.524-1.572a1.574,1.574,0,0,1-1.572,1.572h-2.9V19.087a2.623,2.623,0,0,0-2.62-2.62h-2.49a2.623,2.623,0,0,0-2.62,2.62v4.361h-3.023a1.574,1.574,0,0,1-1.572-1.572V11.185h16.8Zm-18.683-11.74,9.353-8.672a1.577,1.577,0,0,1,2.147.008l9.2,8.664h-20.7Z" transform="translate(177.497 0)" fill="#083863"/>
</svg>
